<?xml version="1.0" encoding="utf-8"?>
<!-- Generator: Adobe Illustrator 24.1.2, SVG Export Plug-In . SVG Version: 6.00 Build 0)  -->
<svg version="1.1" id="Layer_1" xmlns="http://www.w3.org/2000/svg" xmlns:xlink="http://www.w3.org/1999/xlink" x="0px" y="0px"
	 viewBox="0 0 200 200" style="enable-background:new 0 0 200 200;" xml:space="preserve">
<style type="text/css">
	.st0{fill:#C6C6C5;stroke:#1D1D1B;stroke-miterlimit:10;}
	.st1{fill:#35A8E0;stroke:#1D1D1B;stroke-miterlimit:10;}
	.st2{fill:#1D1D1B;}
</style>
<g>
	<path class="st0" d="M89.93,16.95L15.02,165.63c-1.39,2.75,0.61,6,3.69,6h149.81c3.08,0,5.08-3.25,3.69-6L97.32,16.95
		C95.79,13.92,91.46,13.92,89.93,16.95z"/>
	<path class="st1" d="M103.4,16.61L27.46,167.34c-1.17,2.33,0.52,5.07,3.12,5.07h151.89c2.61,0,4.3-2.75,3.12-5.07L109.65,16.61
		C108.35,14.04,104.69,14.04,103.4,16.61z"/>
	<g>
		<path class="st2" d="M101.46,70.62V37.62c0-0.6,0.19-1.12,0.58-1.56c0.39-0.44,0.85-0.66,1.38-0.66c0.53,0,0.99,0.22,1.38,0.66
			c0.39,0.44,0.58,0.96,0.58,1.56v28.55h13.88c0.54,0,1.02,0.22,1.41,0.65c0.4,0.43,0.6,0.96,0.6,1.58c0,0.62-0.2,1.14-0.6,1.58
			c-0.4,0.43-0.87,0.65-1.41,0.65H101.46z"/>
		<path class="st2" d="M101.58,114.41l7.9-30.47c0.32-1.1,0.98-1.66,1.99-1.66c0.98,0,1.59,0.47,1.84,1.4l7.83,30.94
			c0.06,0.23,0.09,0.45,0.09,0.66c0,0.62-0.19,1.14-0.56,1.58c-0.37,0.43-0.8,0.65-1.28,0.65c-1.03,0-1.68-0.54-1.96-1.62
			l-1.55-6.04h-8.99l-1.71,6.48c-0.05,0.28-0.24,0.55-0.59,0.8c-0.34,0.26-0.72,0.38-1.13,0.38c-0.58,0-1.06-0.22-1.43-0.66
			c-0.38-0.44-0.56-0.98-0.56-1.62C101.46,114.97,101.5,114.69,101.58,114.41z M111.44,92.59l-3.37,12.75h6.64L111.44,92.59z"/>
		<path class="st2" d="M105.88,129.17h10.22c1.25,0,2.43,0.6,3.54,1.79c1.11,1.19,1.67,2.64,1.67,4.33c0,0.64-0.2,1.18-0.6,1.62
			c-0.4,0.44-0.84,0.66-1.32,0.66c-0.67,0-1.13-0.17-1.38-0.52s-0.49-0.99-0.71-1.92c-0.23-0.94-0.73-1.4-1.51-1.4h-9.71
			c-0.47,0-0.7,0.17-0.7,0.51c-0.01,0.22,0.08,0.47,0.29,0.75l14.6,21.11c0.7,1.02,1.05,2.12,1.05,3.29c0,1.33-0.42,2.49-1.27,3.5
			c-0.85,1.01-1.8,1.51-2.84,1.51h-10.58c-1.4,0-2.62-0.61-3.66-1.82c-1.04-1.21-1.55-2.54-1.55-3.99c0-1.66,0.69-2.49,2.06-2.49
			c0.53,0,0.98,0.22,1.35,0.65c0.37,0.43,0.56,0.94,0.56,1.52c0,0.48,0.14,0.88,0.43,1.19c0.29,0.32,0.65,0.48,1.09,0.48h9.77
			c0.42,0,0.63-0.19,0.63-0.57c0.01-0.18-0.08-0.41-0.29-0.69l-14.57-21.12c-0.69-1.01-1.03-2.1-1.03-3.29
			c0-1.38,0.44-2.58,1.31-3.59C103.6,129.68,104.65,129.17,105.88,129.17z"/>
	</g>
</g>
</svg>
